<svg xmlns="http://www.w3.org/2000/svg" version="1.1" xmlns:xlink="http://www.w3.org/1999/xlink" xmlns:svgjs="http://svgjs.com/svgjs" width="512" height="512" x="0" y="0" viewBox="0 0 64 64" style="enable-background:new 0 0 512 512" xml:space="preserve" class=""><g><g xmlns="http://www.w3.org/2000/svg" id="Device_Connection" data-name="Device Connection"><path d="M33,45H31a1,1,0,0,1,0-2h2A1,1,0,0,1,33,45Z" fill="#000000" data-original="#000000" class=""></path><circle cx="32" cy="56" r="1" fill="#000000" data-original="#000000" class=""></circle><path d="M60.6001,46.9502l-1.67725-1.25782V41a.99974.99974,0,0,0-1-1H55.5a.99974.99974,0,0,0-1,1v1.375l-2.8999-2.1748a.99757.99757,0,0,0-1.2002,0l-3.35376,2.51538L40.9165,36.58594V29.75977h2.70606a9.31076,9.31076,0,0,0,9.2583-7.60059,9.11685,9.11685,0,0,0-9.708-10.54395A12.14841,12.14841,0,0,0,26.03027,5.80078.99985.99985,0,0,0,27.01172,7.543a10.14977,10.14977,0,0,1,14.35937,4.94726,1.821,1.821,0,0,0,1.8545,1.127,7.11914,7.11914,0,0,1,7.68066,8.22558,7.29691,7.29691,0,0,1-7.28369,5.917H18.6665a5.63391,5.63391,0,0,1-5.6167-6.37207,5.69788,5.69788,0,0,1,6.75879-4.74317,1.78957,1.78957,0,0,0,2.14649-1.53515,9.95142,9.95142,0,0,1,2.00781-4.92872.99992.99992,0,0,0-1.584-1.2207,11.95464,11.95464,0,0,0-2.38086,5.68457A7.62055,7.62055,0,1,0,18.6665,29.75977H23.021v6.82617L17.10693,42.5H5a.99974.99974,0,0,0-1,1v11a.99974.99974,0,0,0,1,1h7.53125v2.4375H11a1,1,0,0,0,0,2h5a1,1,0,0,0,0-2H14.53125V55.5H22a.99974.99974,0,0,0,1-1v-11a.99974.99974,0,0,0-1-1H19.93506l4.793-4.793A.99927.99927,0,0,0,25.021,37V29.75977H31V40H28.3335A2.33614,2.33614,0,0,0,26,42.333V57.667A2.33613,2.33613,0,0,0,28.3335,60h7.333A2.33612,2.33612,0,0,0,38,57.667V42.333A2.33613,2.33613,0,0,0,35.6665,40H33V29.75977h5.9165V37a.99927.99927,0,0,0,.293.707l6.22034,6.22034L41.3999,46.9502A1.00088,1.00088,0,0,0,42,48.75h1.07715V59a.99974.99974,0,0,0,1,1h13.8457a.99974.99974,0,0,0,1-1V48.75H60A1.00088,1.00088,0,0,0,60.6001,46.9502ZM21,53.5H6v-9H21ZM36,42.333V57.667a.33352.33352,0,0,1-.3335.333h-7.333A.33352.33352,0,0,1,28,57.667V42.333A.33352.33352,0,0,1,28.3335,42h7.333A.33352.33352,0,0,1,36,42.333ZM56.92285,47.75V58H45.07715V47.75a.99713.99713,0,0,0-.37256-.77832C44.717,46.96234,48.77453,43.92238,51,42.25l3.8999,2.9248A1.001,1.001,0,0,0,56.5,44.375V42h.42285v4.19238a.99926.99926,0,0,0,.37256.77832A1.00058,1.00058,0,0,0,56.92285,47.75Z" fill="#000000" data-original="#000000" class=""></path><path d="M39.35254,17.17272A9.98416,9.98416,0,0,0,31.81445,13.91a1.00025,1.00025,0,0,1-.03711-2,11.978,11.978,0,0,1,9.03614,3.89746A.99983.99983,0,0,1,39.35254,17.17272Z" fill="#000000" data-original="#000000" class=""></path><path d="M27.67676,12.72936q.30615-.11867.61523-.22168a.99967.99967,0,0,1,.63281,1.89648c-.1748.05859-.34863.12109-.51953.18848A1.00034,1.00034,0,0,1,27.67676,12.72936Z" fill="#000000" data-original="#000000" class=""></path><path d="M23.18555,15.80748a12.85847,12.85847,0,0,1,1.50194-1.37207,1.00018,1.00018,0,0,1,1.22657,1.58008,10.72445,10.72445,0,0,0-1.26562,1.15723A1.00052,1.00052,0,0,1,23.18555,15.80748Z" fill="#000000" data-original="#000000" class=""></path><path d="M37.2334,19.13756a7.50494,7.50494,0,0,0-.80957-.748,1.00006,1.00006,0,0,1,1.24609-1.56445,9.47861,9.47861,0,0,1,1.02442.94727A.99983.99983,0,0,1,37.2334,19.13756Z" fill="#000000" data-original="#000000" class=""></path><path d="M25.5127,17.77428A8.9531,8.9531,0,0,1,34.52148,15.201a1.00006,1.00006,0,0,1-.54687,1.92382,6.96292,6.96292,0,0,0-7.001,2.01465A.9998.9998,0,0,1,25.5127,17.77428Z" fill="#000000" data-original="#000000" class=""></path><path d="M27.81445,19.70592a5.70273,5.70273,0,0,1,4.19727-1.85156h.001A5.69748,5.69748,0,0,1,36.20508,19.704a.99981.99981,0,0,1-1.46094,1.36523,3.71849,3.71849,0,0,0-2.73144-1.21484h-.001a3.72576,3.72576,0,0,0-2.73633,1.21679A.9998.9998,0,0,1,27.81445,19.70592Z" fill="#000000" data-original="#000000" class=""></path><path d="M32,26.09166A2.64112,2.64112,0,1,1,34.64063,23.451,2.6436,2.6436,0,0,1,32,26.09166Zm0-3.28223a.64112.64112,0,1,0,.64063.64161A.64183.64183,0,0,0,32,22.80943Z" fill="#000000" data-original="#000000" class=""></path></g></g></svg>